<svg width="76" height="20" viewBox="0 0 76 20" fill="none" xmlns="http://www.w3.org/2000/svg">
<path d="M10.536 18.5L4.968 4.868L4.416 17.396C4.784 17.556 5.168 17.66 5.568 17.708C5.984 17.756 6.304 17.78 6.528 17.78V18.5H0.96V17.78C1.184 17.78 1.504 17.756 1.92 17.708C2.336 17.66 2.72 17.556 3.072 17.396L3.72 2.636C3.368 2.476 2.984 2.372 2.568 2.324C2.152 2.276 1.832 2.252 1.608 2.252V1.532H5.88L11.16 14.444L17.496 1.532H21.024V2.252C20.8 2.252 20.488 2.276 20.088 2.324C19.688 2.372 19.304 2.476 18.936 2.636L19.512 17.396C19.88 17.556 20.264 17.66 20.664 17.708C21.08 17.756 21.4 17.78 21.624 17.78V18.5H15.312V17.78C15.536 17.78 15.848 17.756 16.248 17.708C16.664 17.66 17.048 17.556 17.4 17.396L16.944 5.444L10.536 18.5ZM39.5138 19.22C38.4258 19.204 37.5458 19.1 36.8738 18.908C36.2018 18.732 35.6418 18.476 35.1938 18.14C34.7458 17.804 34.2978 17.404 33.8498 16.94C33.6098 16.684 33.2898 16.308 32.8898 15.812C32.5058 15.3 32.0898 14.732 31.6418 14.108C31.1938 13.468 30.7538 12.844 30.3218 12.236C29.8898 11.612 29.5058 11.06 29.1698 10.58C28.8338 10.1 28.5858 9.756 28.4258 9.548L34.8818 2.636C34.5778 2.476 34.2578 2.372 33.9218 2.324C33.5858 2.276 33.3298 2.252 33.1538 2.252V1.532H38.6258V2.252C38.4018 2.252 38.0898 2.276 37.6898 2.324C37.2898 2.372 36.9058 2.476 36.5378 2.636L30.5378 9.092C30.7938 9.396 31.1218 9.812 31.5218 10.34C31.9218 10.868 32.3538 11.444 32.8178 12.068C33.2818 12.692 33.7458 13.308 34.2098 13.916C34.6898 14.508 35.1218 15.02 35.5058 15.452C35.9378 15.916 36.3298 16.34 36.6818 16.724C37.0498 17.108 37.4658 17.444 37.9298 17.732C38.3938 18.02 38.9778 18.276 39.6818 18.5L39.5138 19.22ZM23.7938 18.5V17.78C24.0178 17.78 24.3378 17.756 24.7538 17.708C25.1698 17.66 25.5538 17.556 25.9058 17.396V2.636C25.5538 2.476 25.1698 2.372 24.7538 2.324C24.3378 2.276 24.0178 2.252 23.7938 2.252V1.532H30.1058V2.252C29.8818 2.252 29.5618 2.276 29.1458 2.324C28.7458 2.372 28.3618 2.476 27.9938 2.636V17.396C28.3618 17.556 28.7618 17.66 29.1938 17.708C29.6258 17.756 29.9618 17.78 30.2018 17.78V18.5H23.7938ZM39.6351 18.5V17.78C39.8111 17.78 40.0591 17.756 40.3791 17.708C40.7151 17.66 41.0351 17.564 41.3391 17.42L47.3871 2.54L47.0271 1.532L48.9951 0.811999L55.0191 17.396C55.3391 17.556 55.6751 17.66 56.0271 17.708C56.3791 17.756 56.6511 17.78 56.8431 17.78V18.5H50.6751V17.78C50.8991 17.78 51.2191 17.756 51.6351 17.708C52.0511 17.66 52.4351 17.556 52.7871 17.396L51.0111 12.524H44.7231L42.7311 17.396C43.0991 17.556 43.4831 17.66 43.8831 17.708C44.2991 17.756 44.6191 17.78 44.8431 17.78V18.5H39.6351ZM45.2271 11.3H50.5791L48.0591 4.364L45.2271 11.3ZM57.6609 18.5V17.78C57.8849 17.78 58.2049 17.756 58.6209 17.708C59.0369 17.66 59.4209 17.556 59.7729 17.396V2.588C59.4209 2.476 59.0449 2.42 58.6449 2.42C58.2609 2.42 57.9569 2.428 57.7329 2.444L57.6609 1.724C58.7489 1.58 59.8609 1.46 60.9969 1.364C62.1489 1.252 63.2929 1.196 64.4289 1.196C66.4929 1.196 68.3409 1.524 69.9729 2.18C71.6049 2.82 72.8849 3.78 73.8129 5.06C74.7569 6.324 75.2289 7.892 75.2289 9.764C75.2289 11.044 74.9249 12.252 74.3169 13.388C73.7089 14.524 72.8849 15.5 71.8449 16.316C70.8209 17.116 69.6529 17.692 68.3409 18.044C67.8129 18.188 67.1249 18.3 66.2769 18.38C65.4449 18.46 64.6529 18.5 63.9009 18.5H57.6609ZM61.8609 16.844C62.2769 17.004 62.7409 17.132 63.2529 17.228C63.7649 17.324 64.3249 17.372 64.9329 17.372C66.5009 17.372 67.8769 17.092 69.0609 16.532C70.2609 15.972 71.1969 15.172 71.8689 14.132C72.5409 13.092 72.8769 11.852 72.8769 10.412C72.8769 8.988 72.5889 7.732 72.0129 6.644C71.4529 5.556 70.6689 4.668 69.6609 3.98C68.6529 3.276 67.4849 2.796 66.1569 2.54C64.8289 2.268 63.3969 2.244 61.8609 2.468V16.844Z" fill="black"/>
</svg>
